<mxfile host="app.diagrams.net" modified="2022-06-09T03:48:42.237Z" agent="5.0 (Windows NT 10.0; Win64; x64) AppleWebKit/537.36 (KHTML, like Gecko) Chrome/102.0.5005.63 Safari/537.36 Edg/102.0.1245.33" etag="Ir9fBHszh7vf6QGfvNZs" version="19.0.3" type="github">
  <diagram id="gLBFHRzQXExZYstEGcPn" name="Page-1">
    <mxGraphModel dx="785" dy="528" grid="1" gridSize="10" guides="1" tooltips="1" connect="1" arrows="1" fold="1" page="1" pageScale="1" pageWidth="827" pageHeight="10000" math="0" shadow="0">
      <root>
        <mxCell id="0" />
        <mxCell id="1" parent="0" />
        <mxCell id="MMYDRTrn-ygeRLkFyybT-2" value="" style="rounded=1;whiteSpace=wrap;html=1;" vertex="1" parent="1">
          <mxGeometry x="320" y="100" width="140" height="30" as="geometry" />
        </mxCell>
        <mxCell id="MMYDRTrn-ygeRLkFyybT-3" value="" style="ellipse;whiteSpace=wrap;html=1;rounded=1;" vertex="1" parent="1">
          <mxGeometry x="350" y="270" width="31.31" height="30" as="geometry" />
        </mxCell>
      </root>
    </mxGraphModel>
  </diagram>
</mxfile>
